<?xml version="1.0" encoding="UTF-8"?><svg id="_レイヤー_2" xmlns="http://www.w3.org/2000/svg" viewBox="0 0 122.75 122.74"><defs><style>.cls-1{fill:#b2b2b2;}</style></defs><g id="_レイヤー_1-2"><path class="cls-1" d="m113.04,0c-.1,0-.2,0-.3,0-.24,0-.48,0-.71.03-1.14.08-2.23.35-3.24.79L6.25,42.23C2.32,43.82-.18,47.72,0,51.95c.19,4.24,3.03,7.89,7.08,9.12l41.86,12.72,12.72,41.86c1.23,4.06,4.89,6.89,9.12,7.08.15,0,.3,0,.45,0,4.06,0,7.74-2.46,9.27-6.25L121.9,14.02c.54-1.23.84-2.59.84-4.02C122.75,4.58,118.43.16,113.04,0ZM10,51.51L100.88,14.79l-47.45,47.45c-.6.6-1,1.33-1.23,2.09l-42.2-12.82Zm61.24,61.24l-12.82-42.2c.76-.23,1.49-.62,2.09-1.23l47.45-47.45-36.71,90.88Z"/></g></svg>